<?xml version="1.0" encoding="utf-8"?>
<!-- Generator: Adobe Illustrator 24.0.1, SVG Export Plug-In . SVG Version: 6.00 Build 0)  -->
<svg version="1.1" id="Layer_1" xmlns="http://www.w3.org/2000/svg" xmlns:xlink="http://www.w3.org/1999/xlink" x="0px" y="0px"
	 viewBox="0 0 50 50" style="enable-background:new 0 0 50 50;" xml:space="preserve">
<g>
	<path d="M31.47,46c-0.67,1.52-1.99,2.39-3.74,2.69c-0.76,0.13-1.51,0.01-2.25-0.2c-2.02-0.55-3.13-1.59-4.6-3
		c-0.69-0.66-1.48-1.21-2.43-1.42c-0.74-0.16-1.5-0.26-2.25-0.37c-1.45-0.2-2.14-0.3-3.58-0.55c-1.33-0.22-2.58-0.76-3.81-1.29
		c-0.89-0.39-1.72-0.9-2.38-1.62c-0.56-0.61-1.09-1.25-1.34-2.07c-0.41-1.32-0.16-2.52,0.6-3.67c1.28-1.97,2.19-3.59,4.06-4.98
		c2.39-1.77,4.94-3.24,7.74-4.25c1.71-0.62,3.48-0.94,5.31-0.91c1.46,0.02,2.71,0.56,3.79,1.51c1.29,1.13,2.24,2.51,3.01,4.02
		c2.03,4.02,2.52,8.11,2.51,12.61C32.09,43.64,31.89,44.76,31.47,46z"/>
	<path d="M42.87,18c-0.48,0.97-0.98,1.92-1.64,2.78c-1.57,2.02-3.5,3.48-5.93,4.11c-1,0.26-1.97,0.15-2.85-0.34
		c-1.12-0.63-1.78-1.64-2.09-2.91c-0.3-1.2-0.16-2.41,0.25-3.58c1.27-3.65,3.72-6.16,7.16-7.63c1.17-0.5,2.4-0.64,3.6-0.28
		c1.1,0.33,1.84,1.08,2.21,2.2c0.45,1.37,0.35,2.77-0.1,4.16C43.3,17.01,43.07,17.5,42.87,18z"/>
	<path d="M29.05,14.08c-0.61,1.58-1.49,2.95-2.78,4.05c-0.62,0.53-1.33,0.91-2.1,1.18c-0.54,0.18-1.05,0.11-1.58-0.02
		c-2.06-0.51-3.2-1.96-3.92-3.84c-0.75-1.95-0.83-3.96-0.54-6c0.3-2.13,1.02-4.1,2.37-5.8c0.75-0.95,1.65-1.72,2.77-2.22
		c1.64-0.72,3.36-0.38,4.59,0.93c0.93,0.99,1.49,2.18,1.79,3.5c0.48,2.15,0.44,4.29-0.09,6.42C29.42,12.89,29.23,13.48,29.05,14.08z
		"/>
	<path d="M45.34,32.61c-0.59,1.59-1.47,2.96-2.72,4.04c-1.01,0.88-2.13,1.49-3.36,1.8c-1.75,0.44-3.39-0.65-4.03-2.31
		c-0.47-1.23-0.48-2.5-0.02-3.82c0.97-2.75,2.63-4.81,5.1-6.02c0.97-0.48,1.99-0.74,3.01-0.57c1.26,0.21,2.14,0.97,2.51,2.34
		c0.31,1.15,0.2,2.33-0.15,3.51C45.57,31.93,45.45,32.27,45.34,32.61z"/>
	<path d="M15.34,22.39c-0.33,0.96-0.78,1.85-1.5,2.59c-1.03,1.03-2.23,1.52-3.68,1.15c-1.09-0.28-2.03-0.85-2.79-1.67
		c-1.95-2.09-2.75-4.62-2.71-7.43c0.02-1.57,0.39-3.07,1.06-4.49c0.52-1.12,1.32-2.03,2.41-2.65c1.76-1.01,3.6-0.77,5.16,0.65
		c1.37,1.25,2.16,2.83,2.6,4.6c0.49,1.96,0.45,3.93-0.08,5.88C15.66,21.47,15.49,21.93,15.34,22.39z"/>
</g>
</svg>
