<?xml version="1.0" encoding="utf-8"?>
<!-- Generator: Adobe Illustrator 24.0.1, SVG Export Plug-In . SVG Version: 6.00 Build 0)  -->
<svg version="1.1" id="Layer_1" xmlns="http://www.w3.org/2000/svg" xmlns:xlink="http://www.w3.org/1999/xlink" x="0px" y="0px"
	 viewBox="0 0 682.63 453.35" style="enable-background:new 0 0 682.63 453.35;" xml:space="preserve">
<style type="text/css">
	.st0{fill:#DD915D;}
	.st1{fill:#C07B48;}
	.st2{fill:#8CC377;}
	.st3{fill:#369743;}
	.st4{fill:#267131;}
	.st5{fill:#3E3D3F;}
	.st6{fill:none;stroke:#D89B70;stroke-width:3;stroke-miterlimit:10;}
	.st7{fill:#828383;}
	.st8{fill:#BABAB9;}
	.st9{fill:#56565A;}
	.st10{fill:#9C9C98;}
	.st11{fill:#A19FA4;}
	.st12{fill:#58585C;}
	.st13{fill:#9D9B9D;}
	.st14{fill:#FBEC4C;}
	.st15{fill:#B76959;}
	.st16{fill:#B0B0AF;}
	.st17{fill:#BDBDB9;}
	.st18{fill:#4D3F3B;}
</style>
<path class="st0" d="M268.22,136.71h6.19c0,0-15.52,24.65-7.16,76.18c0,0,4.74,22.05,5.85,24.32c0,0,1.96,5.88-9.2,5.77
	c0,0-11.69,1.69-13.55-8.04C250.36,234.95,240.19,182.79,268.22,136.71z"/>
<path class="st1" d="M149.4,57.97h-8.94c0,0,22.42,35.61,10.34,110.05c0,0-6.85,31.86-8.46,35.14c0,0-2.83,8.5,13.29,8.34
	c0,0,16.89,2.43,19.58-11.61C175.21,199.88,189.9,124.54,149.4,57.97z"/>
<g>
	<path class="st2" d="M280.12,79.39c-0.74-0.51-1.7-0.1-1.7-0.1c-11.09,3.9-13.57,10.22-13.57,10.22
		c-5.86,9.1-2.28,28.15-2.28,28.15c2.31,7.05,4.49,9.56,6.4,9.64c4.43,0.18,7.43-12.75,7.43-12.75c0.77-3.86-1.63-2.53-1.63-2.53
		c-1.1,0.64-1.73,0.62-1.73,0.62c-4.6,0.75-2.15-0.76-2.15-0.76c3.62-1.1,10.36-9.06,10.36-9.06c1.47-1.86-1.13-2.6-1.13-2.6
		c-2.97-0.44-4.87-3.04-4.87-3.04c-1.14-1.43,0.81-1.4,0.81-1.4c3.95,1.1,4.06-0.82,4.06-0.82c1.74-2.51,0.76-11.8,0.76-11.8
		C281.18,80.83,280.72,79.81,280.12,79.39z"/>
	<path class="st2" d="M224.39,103.28c0,0-23.66,0.48-29.25,14.89c0,0-0.41,0.73-0.14,1.61c0.37,1.26,2.09,2.85,8.24,3.17
		c0,0,6.07-0.29,13.52-4.37c0,0,2.75-1.14,1.56,1.11l-0.75,1.62c0,0-1.63,1.75,4.96,2.15c0,0,6.4-0.21,9.58-2.39
		c0,0,1-0.75,1.55-0.55c0,0,1.01,0.08-0.52,1.42c0,0-2.17,2.8,0.53,2.51c0,0,5.88-0.22,9.22-1.9c0,0,8.83-3.51,19.42,1.31
		c0,0,3.44,1.2,4.15,0c0.15-0.25,0.19-0.59,0.04-1.07C266.52,122.81,259.39,106.22,224.39,103.28z"/>
	<path class="st2" d="M265.19,122.1c-0.45-0.11-0.93-0.18-1.49-0.15c0,0-19.65,5.17-30.04,18.2c0,0-3.75,3.8,2.68,5.1
		c0,0,3.06,2.37-1.02,2.95c0,0-2.87,0-6.04,6.05c0,0-11.33,16.69-4.35,15.59c0,0,1.51,0.57,2.49,1.57c0,0,1.56,1.14-3.87,2.79
		c0,0-3.48,0.77-2.97,3.6c0,0,0.48,29.22,8.26,30.37c1.45,0.21,3.15-0.54,5.14-2.63c0,0,9.22-11.3,11.21-22.77
		c0,0-0.05-2.24-2.2-3.61c0,0-3.12-3.5,0.52-2.61c0,0,3.2,1.19,5.33-2.95c0,0,9.19-14.58,8.6-16.99c0,0-1.19-2.4-1.98-3.34
		c0,0-1.88-2.71,1.32-2.81c0,0,6.96,0.73,7.38-1.77C264.15,148.69,273.59,124.19,265.19,122.1z"/>
	<path class="st2" d="M332.79,114.34c-8.52-15.63-31.01-14.99-31.01-14.99c-32.65,2.88-35.49,23.63-35.49,23.63
		c-0.01,0.11,0.01,0.2,0.01,0.3c3.29-3.82,8.82-9.23,16.44-13.14c-7.53,3.91-13.01,9.26-16.27,13.06c0.15,2.7,4.2,0.67,4.2,0.67
		c8.95-5.84,18.08-2.41,18.08-2.41c3.53,1.69,9.15,1.64,9.15,1.64c2.62,0.19-0.06-2.79-0.06-2.79c-1.74-1.4-0.81-1.54-0.81-1.54
		c0.47-0.25,1.59,0.53,1.59,0.53c3.5,2.24,9.6,2.16,9.6,2.16c6.15-0.76,4.22-2.62,4.22-2.62l-1.07-1.75
		c-1.63-2.42,1.23-1.3,1.23-1.3c7.96,4.13,13.77,4.15,13.77,4.15c6.38-0.73,7.24-2.91,7.07-4.35c-0.07-0.05-0.14-0.1-0.21-0.16
		C333.1,114.78,332.79,114.34,332.79,114.34z"/>
	<path class="st2" d="M314.33,153.25c0,0-11.18-13.9-15.44-15.06c0,0,4.09-0.67,1.72-2.84c0,0-12.25-13.48-28.52-13.09
		c0,0-4.43-0.12-5.79,0.8c-0.27,0.18-0.43,0.4-0.4,0.68c0,0,2.9,28.17,11.09,20.77c0,0,2.51-2.12,3.16-1.47c0,0,1.08,0.34-2.56,3.95
		c0,0-2.34,1.78,1.01,4.24c0,0,6.62,5.87,8.95,10.8c0,0,1.22,3.37,3.69,1.32c0,0,2.87-3.25,3.54-2.7c0,0,1.2,0.27-2.05,3.97
		c0,0-0.88,0.82,1.35,2.24c0,0,10.03,6.86,11.24,11.97c0,0,0.79,3.65,2.62,3.26c1.27-0.27,3.05-2.49,5.42-9.22
		c0,0,2.48-7.19,1.98-11.92c0,0,0.19-1.06-1.96-0.83c0,0-2.74,0.33-1.11-1.3l2.43-2.55C314.7,156.28,315.91,155.36,314.33,153.25z"
		/>
</g>
<g>
	<path class="st2" d="M105.51,12.13c0.53-1.01,1.84-1.11,1.84-1.11c14.67-2.15,21.15,3.44,21.15,3.44
		c11.88,6.72,19.07,30.09,19.07,30.09c1.55,9.23,0.6,13.31-1.48,14.52c-4.84,2.8-15.78-9.88-15.78-9.88
		c-3.12-3.85,0.34-3.79,0.34-3.79c1.6,0.07,2.29-0.32,2.29-0.32c5.57-1.87,1.95-2.11,1.95-2.11C130.2,43.88,118,38.95,118,38.95
		c-2.73-1.22-0.27-3.56-0.27-3.56c3.05-2.23,3.65-6.26,3.65-6.26c0.44-2.26-1.73-1.09-1.73-1.09c-3.76,3.55-5.02,1.47-5.02,1.47
		c-3.41-1.78-7.77-12.73-7.77-12.73C105.17,14.35,105.09,12.95,105.51,12.13z"/>
	<path class="st3" d="M181.74,6.1c0,0,26.69-13.35,41.4-0.54c0,0,0.88,0.57,1.11,1.72c0.32,1.63-0.66,4.41-7.33,8.37
		c0,0-6.94,3.24-17.66,3.06c0,0-3.74,0.34-1.09,2.16l1.79,1.37c0,0,2.85,1-4.28,5.31c0,0-7.27,3.52-12.1,2.96
		c0,0-1.55-0.25-2.05,0.3c0,0-1.08,0.68,1.41,1.28c0,0,4.06,1.85,0.88,3.11c0,0-6.7,3.21-11.41,3.29c0,0-11.91,1.27-20.91,12.86
		c0,0-3.14,3.36-4.64,2.44c-0.31-0.19-0.55-0.55-0.68-1.17C146.18,52.62,144.4,29.91,181.74,6.1z"/>
	<path class="st4" d="M147.25,51.04c0.44-0.39,0.94-0.75,1.57-1.05c0,0,24.97-5.77,44.21,2.69c0,0,6.41,2.04,0,7.27
		c0,0-2.02,4.44,2.87,2.7c0,0,3.21-1.69,10.29,3.21c0,0,22.44,11.98,14.01,14.85c0,0-1.35,1.52-1.86,3.21c0,0-1.07,2.19,5.96,0.84
		c0,0,4.33-1.18,5.43,2.28c0,0,16.62,32.9,8.6,38.76c-1.49,1.09-3.83,1.24-7.28,0.08c0,0-16.93-7.2-25.87-18.84
		c0,0-1.27-2.53,0.34-5.32c0,0,1.43-5.74-2.11-2.62c0,0-2.87,3.21-7.68-0.17c0,0-18.81-10.88-19.57-13.92c0,0-0.08-3.37,0.25-4.89
		c0,0,0.51-4.13-3.12-2.36c0,0-7.34,4.89-9.28,2.36C164.01,80.11,139.1,58.31,147.25,51.04z"/>
	<path class="st2" d="M67.23,82.06c0.34-22.44,25.82-34.93,25.82-34.93c38.14-15.95,53.48,5.55,53.48,5.55
		c0.07,0.12,0.11,0.23,0.16,0.34c-5.91-2.34-15.27-5.12-26.07-5.02c10.7-0.05,19.95,2.71,25.82,5.02c1.41,3.1-4.29,3.21-4.29,3.21
		c-13.41-1.27-21.6,7.93-21.6,7.93c-2.95,3.96-9.25,7.2-9.25,7.2c-2.81,1.74-1.58-3.15-1.58-3.15c1.13-2.59,0-2.19,0-2.19
		c-0.67,0-1.46,1.52-1.46,1.52c-2.59,4.56-9.45,8.04-9.45,8.04c-7.31,2.76-6.24-0.45-6.24-0.45l0.17-2.59
		c0.39-3.66-2.14-0.73-2.14-0.73c-6.47,9.28-12.94,12.71-12.94,12.71c-7.54,2.93-9.79,1-10.45-0.71c0.05-0.1,0.1-0.2,0.14-0.3
		C67.15,82.73,67.23,82.06,67.23,82.06z"/>
	<path class="st3" d="M110.67,114.66c0,0,4.33-22.08,8.4-25.88c0,0-4.96,1.66-3.59-2.16c0,0,5.76-22.24,24.15-31.35
		c0,0,4.87-2.73,6.93-2.5c0.41,0.05,0.72,0.2,0.84,0.53c0,0,13.3,33.15-0.18,29.7c0,0-4.04-0.89-4.39,0.21c0,0-1.01,1.02,5.18,2.91
		c0,0,3.66,0.61,1.35,5.32c0,0-3.95,10.44-3.65,17.3c0,0,0.62,4.48-3.34,3.64c0,0-5.11-1.94-5.53-0.93c0,0-1.19,1.01,4.62,3.23
		c0,0,1.46,0.4-0.19,3.29c0,0-7.17,13.54-5.52,19.96c0,0,1.26,4.53-1.01,5.17c-1.58,0.44-4.86-0.98-11.46-7.11
		c0,0-6.99-6.57-9.21-12.15c0,0-0.84-1.07,1.7-2.07c0,0,3.26-1.25,0.48-2.11l-4.21-1.42C112.04,118.25,110.15,117.95,110.67,114.66z
		"/>
</g>
<g>
	<path class="st5" d="M0,164.6h425c0,0,86.29-3.81,92.63,26.64c0,0,12.52,40.6,41.78,48.21c0,0,47.03,5.75,52.1,47.92
		c0,0,32.82,109.41-52.1,105.6L0,393.07V164.6z"/>
	<path class="st6" d="M-10.16,94.41"/>
	<path class="st7" d="M293.96,247.21c0,0-47.46-39.55-64.16,0c0,0-17.58,41.31,48.34,50.1c0,0,14.06,2.93,38.67,0
		C316.81,297.31,355.05,288.52,293.96,247.21z"/>
	<path class="st8" d="M438.04,320.18c0,0,37.93,23.29,37.48-11.91c0,0-0.39-36.79-41.16-31.68c0,0-8.97,0.23-22.59,7.18
		C411.76,283.77,391.69,298,438.04,320.18z"/>
	<path class="st9" d="M561.03,348.79c0,0-19.11,9.82-4.52,18.48c0,0,15.23,9.09,23.38-9.04c0,0,2.16-3.76,2.72-11.14
		C582.61,347.09,581.8,335.22,561.03,348.79z"/>
	<path class="st10" d="M172.51,315.46c0,0,29.67,4.16,19.05-17.41c0,0-11.05-22.57-34.08-8.47c0,0-5.33,2.55-11.48,10.49
		C146,300.07,138.11,314.23,172.51,315.46z"/>
	<path class="st10" d="M228.33,336.86c0,0,29.8,38.16,46.57,6.49c0,0,17.62-33.07-29.2-47.15c0,0-9.86-3.89-28.07-3.91
		C217.64,292.29,188.85,295.83,228.33,336.86z"/>
	<path class="st7" d="M364.71,174.26c0,0-25.05,7.47-32.52,8.35c0,0-27.69-0.88-35.6,20.65l-5.27,24.17c0,0,1.32,14.06,21.09,24.61
		c0,0,36.48,11.43,55.37,28.13c0,0,20.22,22.85,38.67,0c0,0,27.69-58.89,15.38-81.3C421.84,198.87,411.3,168.11,364.71,174.26z"/>
	<path class="st11" d="M502.71,200.63c0,0-18.9-24.61-44.83-16.26c0,0-28.13,3.96-27.69,21.09c0,0-5.71,44.83,10.99,44.83
		c0,0,54.49,7.47,66.36-20.65C507.54,229.63,510.1,208.02,502.71,200.63z"/>
	<path class="st7" d="M113.78,308.56c0,0-27.64-28.99-65.56-19.15c0,0-41.14,4.66-40.49,24.85c0,0-8.36,52.8,16.07,52.8
		c0,0,79.7,8.8,97.05-24.33C120.85,342.72,124.6,317.26,113.78,308.56z"/>
	<path class="st12" d="M518.51,333.46c0,0,14.97-12.97,7.93-27.97c0,0-4.3-16.61-15.5-15.21c0,0-29.71-0.46-28.7,9.56
		c0,0-1.58,33.19,17.56,38.44C499.8,338.29,514.12,338.39,518.51,333.46z"/>
	<path class="st10" d="M278.08,214.73c0,0,17-10.91,9.66-22.76c0,0-4.25-13.24-16.71-11.76c0,0-32.92,0.56-32.11,8.59
		c0,0-2.79,26.77,18.27,30.4C257.19,219.19,273.06,218.83,278.08,214.73z"/>
	<path class="st13" d="M542.7,362.35c0,0-4.41-20.22-34.73-15.38c0,0-35.97,2.09-51.64,8.02c-10.52,4.66-14.84,7.75-14.7,11.76
		c0,0-6.87,19.06,75.69,12.74C517.31,379.49,544.51,377.73,542.7,362.35z"/>
	<path class="st8" d="M127.55,347.02c0,0,4.4-28.72,34.58-21.85c0,0,35.82,2.97,51.42,11.39c10.47,6.62,14.78,11.01,14.64,16.71
		c0,0,6.84,27.08-75.37,18.11C152.83,371.37,125.74,368.87,127.55,347.02z"/>
	<path class="st10" d="M564.33,267.83c0,0,26.49,6.1,17.7,27.88c0,0-5.58,26.35-14.67,37.13c-7,7.14-11.45,9.91-16.76,9.25
		c0,0-25.84,2.42-11-57.85C539.6,284.24,544.06,264.34,564.33,267.83z"/>
	<path class="st9" d="M51.64,177.35c0,0,48.75,9.84,33.61,40.47c0,0-9.07,37.29-25.25,52.25c-12.51,9.87-20.52,13.62-30.27,12.44
		c0,0-47.19,2.33-22.65-82.87C7.07,199.64,14.37,171.49,51.64,177.35z"/>
	<path class="st9" d="M338.35,288.08c0,0,10.99-13.62,35.16,6.59c0,0,25.05,21.53,47.46,22.85c0,0,36.04,10.99,18.02,36.04
		c0,0-12.74,26.04-20.65,26.43H285.61c0,0-26.81-5.33-4.83-30.82c0,0,36.48-36.48,42.19-43.95L338.35,288.08z"/>
	<path class="st8" d="M111.25,186.07c-6.38,1.92-14.22,28.19-14.22,28.19c-12.18,26.58,19.02,34.12,19.02,34.12
		c18.79-0.79,42.03,18.26,42.03,18.26c22.36,17.82,29.97,3.26,29.97,3.26l10.87-18.47c3.91-7.96,30.16-47.62,30.16-47.62
		s12.43-16.29-15.61-17.84C213.48,185.97,128.32,180.92,111.25,186.07z"/>
	<path class="st7" d="M505.89,250.38c0,0-25.53,3.92-32.56,15.41c0,0-15.39,25.97,53.04,12.69c0,0,18.63-8.94,10.04-24.18
		C536.41,254.3,527.77,244.39,505.89,250.38z"/>
	<path class="st11" d="M115.81,260.57c0,0-24.84-7.1-36.02,0.41c0,0-24.82,17.17,42.89,33.68c0,0,20.66-0.35,19.22-17.78
		C141.91,276.88,138.2,264.27,115.81,260.57z"/>
</g>
<g>
	<path class="st14" d="M97.94,185.2c0,0,9.38-4.06,12.19,0c0,0,2.19,6.57-5.32,11.57c0,0,6.88-1.25,10.32,4.38
		c0,0,2.61,5.84-5.32,6.46c0,0,8.15,11.36-7.77,5.73c0,0-4.97-2.66-5.05,1.25c0,0,0.31,4.77-5.24,5.39c0,0-7.27-0.16-3.91-9.46
		c0,0,1.85-4.06-3.05-2.61c0,0-15.01,6.77-11.36-7.3c0,0,3.23-10.53,15.22-7.61c0,0-6.04-4.38-2.08-11.26
		C86.58,181.76,90.07,174.35,97.94,185.2z"/>
	<ellipse transform="matrix(0.9803 -0.1973 0.1973 0.9803 -37.0919 22.2449)" class="st15" cx="93.1" cy="197.28" rx="2" ry="1.6"/>
	<ellipse class="st15" cx="94.42" cy="200.52" rx="1.67" ry="1.41"/>
	
		<ellipse transform="matrix(0.5768 -0.8169 0.8169 0.5768 -121.335 162.8736)" class="st15" cx="96.54" cy="198.55" rx="0.98" ry="1.28"/>
</g>
<g>
	<path class="st14" d="M234.6,203.68c0,0,6.41-2.78,8.34,0c0,0,1.5,4.49-3.63,7.91c0,0,4.7-0.86,7.05,2.99c0,0,1.78,3.99-3.63,4.42
		c0,0,5.57,7.77-5.31,3.92c0,0-3.4-1.82-3.45,0.86c0,0,0.21,3.26-3.58,3.69c0,0-4.97-0.11-2.67-6.47c0,0,1.26-2.78-2.08-1.78
		c0,0-10.26,4.63-7.77-4.99c0,0,2.21-7.2,10.4-5.2c0,0-4.13-2.99-1.43-7.7C226.83,201.33,229.21,196.26,234.6,203.68z"/>
	
		<ellipse transform="matrix(0.9803 -0.1973 0.1973 0.9803 -37.2678 49.7966)" class="st15" cx="231.28" cy="211.94" rx="1.37" ry="1.09"/>
	<ellipse class="st15" cx="232.19" cy="214.16" rx="1.14" ry="0.96"/>
	
		<ellipse transform="matrix(0.5768 -0.8169 0.8169 0.5768 -74.9662 280.8973)" class="st15" cx="233.64" cy="212.81" rx="0.67" ry="0.88"/>
</g>
<g>
	<path class="st14" d="M346,275.89c0,0,9.38-4.06,12.19,0c0,0,2.19,6.57-5.32,11.57c0,0,6.88-1.25,10.32,4.38
		c0,0,2.61,5.84-5.32,6.46c0,0,8.15,11.36-7.77,5.73c0,0-4.97-2.66-5.05,1.25c0,0,0.31,4.77-5.24,5.39c0,0-7.27-0.16-3.91-9.46
		c0,0,1.85-4.06-3.05-2.61c0,0-15.01,6.77-11.36-7.3c0,0,3.23-10.53,15.22-7.61c0,0-6.04-4.38-2.08-11.26
		C334.64,272.45,338.13,265.04,346,275.89z"/>
	
		<ellipse transform="matrix(0.9803 -0.1973 0.1973 0.9803 -50.1087 72.9691)" class="st15" cx="341.16" cy="287.97" rx="2" ry="1.6"/>
	<ellipse class="st15" cx="342.49" cy="291.22" rx="1.67" ry="1.41"/>
	
		<ellipse transform="matrix(0.5768 -0.8169 0.8169 0.5768 -90.4458 403.8829)" class="st15" cx="344.6" cy="289.24" rx="0.98" ry="1.28"/>
</g>
<g>
	<path class="st14" d="M458.63,254.02c0,0,7,2.92,6.28,6.52c0,0-2.38,4.55-8.92,3.11c0,0,4.21,3.03,2.97,7.77
		c0,0-1.78,4.4-6.19,0.48c0,0-1.88,10.2-7.06-1.2c0,0-1.14-4.03-3.27-2.06c0,0-2.39,2.62-5.58-0.02c0,0-3.66-3.97,3.04-6.96
		c0,0,3.12-1.1-0.18-2.97c0,0-11.35-4.54-1.95-9.83c0,0,7.29-3.69,11.9,4.22c0,0-0.77-5.48,4.94-6.91
		C454.62,246.17,460.38,244.22,458.63,254.02z"/>
	
		<ellipse transform="matrix(0.5693 -0.8221 0.8221 0.5693 -18.1429 480.6546)" class="st15" cx="449.68" cy="257.64" rx="1.19" ry="1.48"/>
	
		<ellipse transform="matrix(0.7203 -0.6936 0.6936 0.7203 -54.8907 383.9071)" class="st15" cx="448.63" cy="260.02" rx="1.04" ry="1.24"/>
	
		<ellipse transform="matrix(0.9885 -0.1511 0.1511 0.9885 -34.1281 71.0913)" class="st15" cx="450.77" cy="260.14" rx="0.73" ry="0.95"/>
</g>
<g>
	<path class="st16" d="M681.98,365.93l-14.91-97.59c-2.03-8.13-10.84-7.45-10.84-7.45H642h-33.55h-0.34h-33.55h-14.23
		c0,0-8.81-0.68-10.84,7.45l-14.91,97.59c0,0-4.07,17.62,8.13,19.65c0,0-15.59,55.57,5.42,63.7c0,0,10.17,4.07,52.18,4.07h7.12h1.69
		h7.12c42.02,0,52.18-4.07,52.18-4.07c21.01-8.13,5.42-63.7,5.42-63.7C686.05,383.55,681.98,365.93,681.98,365.93z"/>
	<path class="st17" d="M608.1,202.92c-22.69,0-41.08,21.64-41.08,48.33c0,12.72-0.61,30.04,6.21,38.67
		c7.36,9.31,22.75,9.66,34.55,9.67v0c0.11,0,0.22,0,0.33,0c0.11,0,0.22,0,0.33,0v0c11.8-0.01,27.19-0.36,34.55-9.67
		c6.83-8.63,6.21-25.95,6.21-38.67c0-26.69-18.39-48.33-41.08-48.33"/>
	<path class="st16" d="M642.88,218.04c-10.23-23.86-34.09-23.18-34.09-23.18h-0.68h-0.68c0,0-23.86-0.68-34.09,23.18
		c0,0-3.41,8.86-4.09,12.27h38.86h38.86C646.29,226.9,642.88,218.04,642.88,218.04z"/>
	<path class="st16" d="M650.15,218.12h-41.63h-0.07h-41.63c-3.28,0-5.94,3.21-5.94,7.18v10.01c0,3.97,2.66,7.18,5.94,7.18h41.63
		h0.07h41.63c3.28,0,5.94-3.21,5.94-7.18V225.3C656.1,221.34,653.44,218.12,650.15,218.12z"/>
	<g>
		<g>
			<path class="st18" d="M591.98,281.31c5.03,4.3,11.58,6.71,18.23,6.36c6.5-0.34,12.7-3.18,17.24-7.82
				c1.35-1.38-0.77-3.5-2.12-2.12c-3.98,4.06-9.42,6.64-15.12,6.94c-5.83,0.31-11.67-1.69-16.11-5.48
				C592.64,277.94,590.51,280.05,591.98,281.31L591.98,281.31z"/>
		</g>
	</g>
	<ellipse class="st18" cx="588.94" cy="260.87" rx="2.66" ry="3.38"/>
	<ellipse class="st18" cx="627.59" cy="259.91" rx="2.66" ry="3.38"/>
</g>
</svg>
