<?xml version="1.0" encoding="utf-8"?>
<!-- Generator: Adobe Illustrator 24.0.1, SVG Export Plug-In . SVG Version: 6.00 Build 0)  -->
<svg version="1.1" id="Layer_1" xmlns="http://www.w3.org/2000/svg" xmlns:xlink="http://www.w3.org/1999/xlink" x="0px" y="0px"
	 viewBox="0 0 1920 1080" style="enable-background:new 0 0 1920 1080;" xml:space="preserve">
<style type="text/css">
	.st0{fill:#FFB792;}
	.st1{fill:#DD915E;}
	.st2{fill:#C07B49;}
	.st3{fill:#8BC376;}
	.st4{fill:#359743;}
	.st5{fill:#227022;}
	.st6{fill:#3D3C3F;}
	.st7{fill:none;stroke:#D89A70;stroke-width:3;stroke-miterlimit:10;}
	.st8{fill:#818282;}
	.st9{fill:#BABAB9;}
	.st10{fill:#555559;}
	.st11{fill:#9B9C98;}
	.st12{fill:#A19FA4;}
	.st13{fill:#57575B;}
	.st14{fill:#9C9B9D;}
	.st15{fill:#FFF241;}
	.st16{fill:#B66958;}
	.st17{fill:#FEFEFE;}
	.st18{fill:#AFAFAF;}
	.st19{fill:#BCBDB9;}
	.st20{fill:#4C3E3B;}
	.st21{fill:#D89A70;}
	.st22{fill:#DBAA49;}
	.st23{fill:#F7C34D;}
	.st24{fill:#EFDECB;stroke:#4C3E3B;stroke-width:3;stroke-miterlimit:10;}
</style>
<rect x="4.33" y="650.48" class="st0" width="1581.01" height="134.69"/>
<path class="st1" d="M279.92,531.81h6.55c0,0-16.42,26.08-7.57,80.6c0,0,5.01,23.33,6.19,25.73c0,0,2.07,6.22-9.73,6.11
	c0,0-12.37,1.78-14.34-8.5C261.02,635.74,250.25,580.57,279.92,531.81z"/>
<path class="st2" d="M154.21,448.52h-9.46c0,0,23.72,37.68,10.94,116.43c0,0-7.24,33.71-8.95,37.17c0,0-3,8.99,14.06,8.82
	c0,0,17.87,2.58,20.71-12.29C181.51,598.65,197.06,518.95,154.21,448.52z"/>
<g>
	<path class="st3" d="M292.5,471.18c-0.79-0.54-1.8-0.1-1.8-0.1c-11.73,4.13-14.36,10.81-14.36,10.81
		c-6.2,9.62-2.41,29.78-2.41,29.78c2.45,7.46,4.75,10.12,6.77,10.2c4.69,0.19,7.86-13.49,7.86-13.49c0.82-4.08-1.73-2.68-1.73-2.68
		c-1.16,0.68-1.83,0.66-1.83,0.66c-4.86,0.79-2.27-0.8-2.27-0.8c3.83-1.17,10.96-9.59,10.96-9.59c1.55-1.97-1.19-2.75-1.19-2.75
		c-3.14-0.46-5.16-3.22-5.16-3.22c-1.21-1.51,0.86-1.48,0.86-1.48c4.18,1.17,4.3-0.87,4.3-0.87c1.84-2.65,0.8-12.48,0.8-12.48
		C293.62,472.69,293.14,471.62,292.5,471.18z"/>
	<path class="st3" d="M233.55,496.45c0,0-25.03,0.51-30.95,15.76c0,0-0.43,0.77-0.15,1.71c0.39,1.33,2.21,3.02,8.71,3.35
		c0,0,6.42-0.31,14.31-4.62c0,0,2.91-1.2,1.65,1.17l-0.79,1.72c0,0-1.72,1.86,5.25,2.28c0,0,6.77-0.22,10.14-2.52
		c0,0,1.06-0.79,1.64-0.58c0,0,1.07,0.09-0.55,1.5c0,0-2.29,2.96,0.56,2.65c0,0,6.23-0.23,9.76-2.01c0,0,9.34-3.71,20.55,1.38
		c0,0,3.64,1.27,4.39,0c0.15-0.26,0.2-0.62,0.05-1.13C278.11,517.11,270.57,499.56,233.55,496.45z"/>
	<path class="st3" d="M276.7,516.36c-0.47-0.12-0.99-0.19-1.58-0.16c0,0-20.79,5.47-31.77,19.25c0,0-3.96,4.02,2.84,5.4
		c0,0,3.24,2.51-1.08,3.12c0,0-3.04,0-6.39,6.4c0,0-11.99,17.66-4.6,16.49c0,0,1.6,0.6,2.63,1.66c0,0,1.65,1.21-4.1,2.95
		c0,0-3.68,0.81-3.14,3.81c0,0,0.5,30.91,8.74,32.13c1.53,0.23,3.33-0.57,5.44-2.78c0,0,9.76-11.95,11.85-24.09
		c0,0-0.05-2.37-2.33-3.81c0,0-3.3-3.7,0.55-2.77c0,0,3.38,1.26,5.63-3.12c0,0,9.72-15.42,9.1-17.98c0,0-1.25-2.54-2.1-3.53
		c0,0-1.99-2.87,1.4-2.97c0,0,7.36,0.77,7.81-1.87C275.61,544.49,285.59,518.57,276.7,516.36z"/>
	<path class="st3" d="M348.22,508.15c-9.01-16.53-32.8-15.86-32.8-15.86c-34.54,3.05-37.54,25-37.54,25
		c-0.01,0.12,0.01,0.21,0.01,0.32c3.48-4.04,9.34-9.76,17.39-13.91c-7.96,4.13-13.76,9.8-17.21,13.81c0.16,2.85,4.44,0.71,4.44,0.71
		c9.47-6.18,19.13-2.54,19.13-2.54c3.74,1.79,9.68,1.73,9.68,1.73c2.77,0.2-0.06-2.95-0.06-2.95c-1.85-1.48-0.86-1.63-0.86-1.63
		c0.5-0.26,1.68,0.56,1.68,0.56c3.7,2.37,10.16,2.28,10.16,2.28c6.5-0.81,4.46-2.77,4.46-2.77l-1.14-1.86
		c-1.72-2.56,1.3-1.38,1.3-1.38c8.43,4.37,14.57,4.39,14.57,4.39c6.74-0.77,7.66-3.08,7.48-4.61c-0.07-0.06-0.15-0.11-0.22-0.17
		C348.55,508.62,348.22,508.15,348.22,508.15z"/>
	<path class="st3" d="M328.7,549.32c0,0-11.83-14.7-16.34-15.93c0,0,4.33-0.71,1.82-3c0,0-12.96-14.26-30.17-13.85
		c0,0-4.68-0.13-6.12,0.85c-0.29,0.19-0.46,0.43-0.42,0.72c0,0,3.07,29.81,11.73,21.98c0,0,2.65-2.24,3.34-1.55
		c0,0,1.15,0.36-2.71,4.18c0,0-2.48,1.88,1.07,4.48c0,0,7,6.21,9.46,11.42c0,0,1.29,3.56,3.9,1.39c0,0,3.03-3.44,3.74-2.85
		c0,0,1.27,0.28-2.17,4.21c0,0-0.93,0.87,1.42,2.37c0,0,10.61,7.25,11.89,12.66c0,0,0.83,3.86,2.77,3.45
		c1.35-0.29,3.23-2.63,5.73-9.75c0,0,2.63-7.6,2.09-12.61c0,0,0.2-1.12-2.07-0.87c0,0-2.9,0.35-1.18-1.38l2.57-2.7
		C329.08,552.52,330.37,551.55,328.7,549.32z"/>
</g>
<g>
	<path class="st3" d="M107.78,400.02c0.56-1.07,1.95-1.17,1.95-1.17c15.51-2.28,22.37,3.64,22.37,3.64
		c12.57,7.1,20.17,31.83,20.17,31.83c1.64,9.76,0.64,14.08-1.57,15.36c-5.12,2.97-16.69-10.45-16.69-10.45c-3.3-4.08,0.35-4,0.35-4
		c1.69,0.07,2.43-0.34,2.43-0.34c5.89-1.97,2.06-2.23,2.06-2.23c-4.96,0.94-17.86-4.27-17.86-4.27c-2.89-1.29-0.28-3.76-0.28-3.76
		c3.23-2.36,3.86-6.62,3.86-6.62c0.46-2.39-1.83-1.15-1.83-1.15c-3.98,3.76-5.31,1.55-5.31,1.55c-3.61-1.88-8.22-13.46-8.22-13.46
		C107.42,402.37,107.33,400.88,107.78,400.02z"/>
	<path class="st4" d="M188.43,393.64c0,0,28.24-14.12,43.79-0.57c0,0,0.93,0.6,1.17,1.82c0.34,1.72-0.7,4.67-7.76,8.86
		c0,0-7.35,3.42-18.68,3.24c0,0-3.95,0.36-1.16,2.28l1.89,1.45c0,0,3.01,1.06-4.53,5.62c0,0-7.69,3.73-12.8,3.13
		c0,0-1.64-0.26-2.17,0.32c0,0-1.14,0.72,1.5,1.35c0,0,4.29,1.96,0.93,3.29c0,0-7.08,3.4-12.07,3.48c0,0-12.6,1.34-22.13,13.6
		c0,0-3.32,3.56-4.9,2.58c-0.33-0.2-0.58-0.58-0.72-1.24C150.8,442.85,148.92,418.83,188.43,393.64z"/>
	<path class="st5" d="M151.94,441.18c0.46-0.41,0.99-0.79,1.66-1.11c0,0,26.42-6.1,46.77,2.84c0,0,6.78,2.16,0,7.69
		c0,0-2.14,4.7,3.03,2.86c0,0,3.39-1.79,10.89,3.39c0,0,23.74,12.67,14.82,15.71c0,0-1.43,1.61-1.96,3.39c0,0-1.14,2.32,6.3,0.89
		c0,0,4.58-1.25,5.74,2.41c0,0,17.58,34.8,9.1,41c-1.58,1.15-4.05,1.32-7.7,0.09c0,0-17.91-7.62-27.37-19.93
		c0,0-1.34-2.68,0.36-5.62c0,0,1.52-6.07-2.23-2.77c0,0-3.03,3.39-8.12-0.18c0,0-19.9-11.51-20.71-14.73c0,0-0.09-3.57,0.27-5.18
		c0,0,0.54-4.37-3.3-2.5c0,0-7.77,5.18-9.82,2.5C169.67,471.94,143.31,448.87,151.94,441.18z"/>
	<path class="st3" d="M67.28,474c0.36-23.74,27.31-36.95,27.31-36.95c40.35-16.87,56.58,5.88,56.58,5.88
		c0.08,0.13,0.12,0.24,0.17,0.36c-6.26-2.47-16.15-5.42-27.58-5.32c11.32-0.06,21.11,2.86,27.32,5.32c1.49,3.28-4.54,3.4-4.54,3.4
		c-14.19-1.34-22.85,8.39-22.85,8.39c-3.12,4.19-9.79,7.62-9.79,7.62c-2.98,1.84-1.67-3.33-1.67-3.33c1.19-2.74,0-2.32,0-2.32
		c-0.71,0-1.55,1.61-1.55,1.61c-2.74,4.82-10,8.51-10,8.51c-7.74,2.92-6.61-0.48-6.61-0.48l0.18-2.74c0.42-3.87-2.26-0.77-2.26-0.77
		c-6.84,9.82-13.69,13.45-13.69,13.45c-7.98,3.1-10.36,1.05-11.05-0.75c0.05-0.11,0.1-0.21,0.15-0.32
		C67.19,474.71,67.28,474,67.28,474z"/>
	<path class="st4" d="M113.24,508.49c0,0,4.58-23.36,8.89-27.38c0,0-5.25,1.75-3.79-2.28c0,0,6.1-23.53,25.55-33.17
		c0,0,5.15-2.89,7.33-2.65c0.43,0.05,0.76,0.21,0.89,0.56c0,0,14.07,35.07-0.19,31.42c0,0-4.28-0.94-4.64,0.23
		c0,0-1.07,1.08,5.48,3.08c0,0,3.87,0.65,1.43,5.63c0,0-4.17,11.04-3.86,18.3c0,0,0.66,4.73-3.53,3.85c0,0-5.4-2.06-5.86-0.99
		c0,0-1.26,1.06,4.89,3.42c0,0,1.54,0.43-0.2,3.48c0,0-7.59,14.32-5.84,21.12c0,0,1.34,4.8-1.07,5.47
		c-1.67,0.47-5.14-1.04-12.12-7.52c0,0-7.4-6.95-9.74-12.85c0,0-0.89-1.14,1.8-2.19c0,0,3.44-1.32,0.5-2.23l-4.45-1.5
		C114.69,512.29,112.68,511.97,113.24,508.49z"/>
</g>
<g>
	<path class="st6" d="M-13,561.32h460.77c0,0,91.29-4.03,98,28.19c0,0,13.24,42.95,44.2,51c0,0,49.75,6.08,55.12,50.69
		c0,0,34.72,115.74-55.12,111.72L-13,803.02V561.32z"/>
	<path class="st7" d="M-12.59,487.07"/>
	<path class="st8" d="M309.14,648.72c0,0-50.21-41.84-67.88,0c0,0-18.6,43.7,51.14,53c0,0,14.88,3.1,40.91,0
		C333.32,701.72,373.77,692.42,309.14,648.72z"/>
	<path class="st9" d="M461.57,725.92c0,0,40.13,24.64,39.65-12.6c0,0-0.41-38.92-43.55-33.52c0,0-9.49,0.25-23.9,7.6
		C433.77,687.39,412.54,702.45,461.57,725.92z"/>
	<path class="st10" d="M591.68,756.18c0,0-20.22,10.38-4.78,19.55c0,0,16.11,9.61,24.73-9.56c0,0,2.28-3.98,2.88-11.78
		C614.52,754.38,613.66,741.83,591.68,756.18z"/>
	<path class="st11" d="M180.66,720.92c0,0,31.39,4.41,20.16-18.42c0,0-11.69-23.88-36.06-8.96c0,0-5.64,2.7-12.15,11.1
		C152.61,704.64,144.26,719.62,180.66,720.92z"/>
	<path class="st11" d="M239.71,743.56c0,0,31.52,40.37,49.27,6.87c0,0,18.64-34.98-30.89-49.88c0,0-10.43-4.12-29.69-4.14
		C228.4,696.4,197.95,700.16,239.71,743.56z"/>
	<path class="st8" d="M384,571.54c0,0-26.5,7.9-34.4,8.83c0,0-29.29-0.93-37.66,21.85l-5.58,25.57c0,0,1.39,14.88,22.32,26.04
		c0,0,38.59,12.09,58.58,29.75c0,0,21.39,24.18,40.91,0c0,0,29.29-62.3,16.27-86.01C444.44,597.58,433.28,565.04,384,571.54z"/>
	<path class="st12" d="M529.98,599.44c0,0-19.99-26.04-47.42-17.2c0,0-29.75,4.18-29.29,22.32c0,0-6.04,47.42,11.62,47.42
		c0,0,57.65,7.9,70.2-21.85C535.09,630.12,537.81,607.25,529.98,599.44z"/>
	<path class="st8" d="M118.53,713.62c0,0-29.24-30.67-69.36-20.26c0,0-43.52,4.93-42.84,26.29c0,0-8.84,55.86,17,55.86
		c0,0,84.32,9.31,102.68-25.74C126.01,749.76,129.97,722.82,118.53,713.62z"/>
	<path class="st13" d="M546.7,739.97c0,0,15.84-13.72,8.39-29.59c0,0-4.55-17.57-16.4-16.09c0,0-31.43-0.48-30.36,10.12
		c0,0-1.68,35.11,18.58,40.67C526.91,745.07,542.05,745.18,546.7,739.97z"/>
	<path class="st11" d="M292.34,614.35c0,0,17.99-11.54,10.22-24.08c0,0-4.5-14.01-17.68-12.45c0,0-34.83,0.59-33.97,9.09
		c0,0-2.95,28.32,19.33,32.16C270.24,619.08,287.03,618.7,292.34,614.35z"/>
	<path class="st14" d="M572.29,770.53c0,0-4.67-21.39-36.74-16.27c0,0-38.05,2.21-54.64,8.48c-11.13,4.93-15.7,8.2-15.56,12.44
		c0,0-7.26,20.17,80.07,13.48C545.43,788.66,574.21,786.8,572.29,770.53z"/>
	<path class="st9" d="M133.09,754.31c0,0,4.65-30.39,36.58-23.12c0,0,37.89,3.14,54.4,12.05c11.08,7,15.64,11.65,15.49,17.68
		c0,0,7.23,28.65-79.73,19.16C159.84,780.07,131.18,777.43,133.09,754.31z"/>
	<path class="st11" d="M595.17,670.54c0,0,28.02,6.45,18.73,29.49c0,0-5.9,27.88-15.52,39.29c-7.41,7.55-12.11,10.49-17.73,9.78
		c0,0-27.33,2.56-11.64-61.2C569.01,687.89,573.73,666.84,595.17,670.54z"/>
	<path class="st10" d="M46.78,574.81c0,0,51.57,10.41,35.56,42.82c0,0-9.6,39.45-26.71,55.28c-13.24,10.44-21.71,14.41-32.03,13.17
		c0,0-49.92,2.46-23.96-87.67C-0.36,598.39,7.36,568.61,46.78,574.81z"/>
	<path class="st10" d="M356.1,691.96c0,0,11.62-14.41,37.19,6.97c0,0,26.5,22.78,50.21,24.18c0,0,38.12,11.62,19.06,38.12
		c0,0-13.48,27.55-21.85,27.96H300.31c0,0-28.36-5.64-5.11-32.61c0,0,38.59-38.59,44.63-46.49L356.1,691.96z"/>
	<path class="st9" d="M115.85,584.04c-6.75,2.03-15.04,29.83-15.04,29.83c-12.89,28.12,20.12,36.1,20.12,36.1
		c19.87-0.84,44.46,19.32,44.46,19.32c23.66,18.86,31.71,3.45,31.71,3.45l11.5-19.54c4.14-8.42,31.91-50.38,31.91-50.38
		s13.15-17.24-16.51-18.87C224,583.93,133.91,578.59,115.85,584.04z"/>
	<path class="st8" d="M533.35,652.07c0,0-27.01,4.15-34.44,16.3c0,0-16.28,27.47,56.11,13.43c0,0,19.71-9.46,10.62-25.59
		C565.64,656.22,556.5,645.73,533.35,652.07z"/>
	<path class="st12" d="M120.68,662.85c0,0-26.27-7.51-38.11,0.43c0,0-26.26,18.16,45.37,35.64c0,0,21.86-0.37,20.33-18.81
		C148.28,680.11,144.36,666.76,120.68,662.85z"/>
</g>
<g>
	<path class="st15" d="M87.5,487.76c0,0,9.38-4.06,12.19,0c0,0,2.19,6.57-5.32,11.57c0,0,6.88-1.25,10.32,4.38
		c0,0,2.61,5.84-5.32,6.46c0,0,8.15,11.36-7.77,5.73c0,0-4.97-2.66-5.05,1.25c0,0,0.31,4.77-5.24,5.39c0,0-7.27-0.16-3.91-9.46
		c0,0,1.85-4.06-3.05-2.61c0,0-15.01,6.77-11.36-7.3c0,0,3.23-10.53,15.22-7.61c0,0-6.04-4.38-2.08-11.26
		C76.14,484.32,79.63,476.91,87.5,487.76z"/>
	
		<ellipse transform="matrix(0.9803 -0.1973 0.1973 0.9803 -96.9888 26.1332)" class="st16" cx="82.66" cy="499.83" rx="2" ry="1.6"/>
	<ellipse class="st16" cx="83.99" cy="503.08" rx="1.67" ry="1.41"/>
	
		<ellipse transform="matrix(0.5768 -0.8169 0.8169 0.5768 -372.8924 282.3777)" class="st16" cx="86.1" cy="501.1" rx="0.98" ry="1.28"/>
</g>
<g>
	<path class="st15" d="M244.34,602.67c0,0,6.79-2.94,8.82,0c0,0,1.58,4.75-3.84,8.37c0,0,4.98-0.9,7.46,3.17
		c0,0,1.88,4.22-3.84,4.67c0,0,5.89,8.22-5.62,4.15c0,0-3.6-1.92-3.65,0.9c0,0,0.23,3.45-3.79,3.9c0,0-5.26-0.11-2.83-6.84
		c0,0,1.34-2.94-2.21-1.88c0,0-10.86,4.9-8.22-5.28c0,0,2.34-7.61,11.01-5.5c0,0-4.37-3.17-1.51-8.14
		C236.12,600.18,238.65,594.82,244.34,602.67z"/>
	
		<ellipse transform="matrix(0.9803 -0.1973 0.1973 0.9803 -115.8917 59.5329)" class="st16" cx="240.84" cy="611.4" rx="1.44" ry="1.16"/>
	<ellipse class="st16" cx="241.79" cy="613.75" rx="1.21" ry="1.02"/>
	
		<ellipse transform="matrix(0.5768 -0.8169 0.8169 0.5768 -397.2115 457.8683)" class="st16" cx="243.33" cy="612.32" rx="0.71" ry="0.93"/>
</g>
<g>
	<path class="st15" d="M153.41,711.74c0,0,7.37,6.26,5.1,10.34c0,0-4.65,4.6-12.03,0.33c0,0,3.94,5.31,0.6,10.58
		c0,0-3.86,4.65-7.7-1.81c0,0-6.23,11.66-8.11-4.19c0,0,0.18-5.33-3.17-3.76c0,0-3.91,2.26-6.76-2.19c0,0-2.91-6.23,6.39-7.27
		c0,0,4.22-0.13,0.94-3.67c0,0-12.02-9.9,1.44-12.69c0,0,10.28-1.66,12.81,9.73c0,0,1.19-6.96,8.68-6.47
		C151.58,700.67,159.32,700.53,153.41,711.74z"/>
	
		<ellipse transform="matrix(0.7922 -0.6103 0.6103 0.7922 -405.6085 234.2431)" class="st16" cx="141.14" cy="712.68" rx="1.51" ry="1.89"/>
	
		<ellipse transform="matrix(0.897 -0.442 0.442 0.897 -301.7921 135.0609)" class="st16" cx="138.94" cy="715.16" rx="1.33" ry="1.58"/>
	
		<ellipse transform="matrix(0.1564 -0.9877 0.9877 0.1564 -587.9489 743.8926)" class="st16" cx="141.5" cy="716.13" rx="1.21" ry="0.93"/>
</g>
<g>
	<path class="st15" d="M362.2,679.06c0,0,9.92-4.3,12.9,0c0,0,2.32,6.95-5.62,12.24c0,0,7.28-1.32,10.92,4.63
		c0,0,2.76,6.17-5.62,6.84c0,0,8.62,12.02-8.22,6.06c0,0-5.26-2.81-5.34,1.32c0,0,0.33,5.04-5.54,5.71c0,0-7.69-0.17-4.13-10.01
		c0,0,1.96-4.3-3.22-2.76c0,0-15.88,7.17-12.02-7.72c0,0,3.42-11.14,16.1-8.05c0,0-6.39-4.63-2.21-11.91
		C350.18,675.42,353.87,667.58,362.2,679.06z"/>
	
		<ellipse transform="matrix(0.9803 -0.1973 0.1973 0.9803 -129.4764 84.0477)" class="st16" cx="357.08" cy="691.84" rx="2.11" ry="1.69"/>
	<ellipse class="st16" cx="358.48" cy="695.27" rx="1.77" ry="1.49"/>
	
		<ellipse transform="matrix(0.5768 -0.8169 0.8169 0.5768 -413.5878 587.9783)" class="st16" cx="360.72" cy="693.18" rx="1.04" ry="1.36"/>
</g>
<g>
	<path class="st15" d="M481.35,655.92c0,0,7.41,3.09,6.64,6.9c0,0-2.52,4.81-9.44,3.29c0,0,4.45,3.21,3.14,8.22
		c0,0-1.88,4.65-6.55,0.51c0,0-1.99,10.79-7.47-1.27c0,0-1.21-4.26-3.46-2.18c0,0-2.53,2.77-5.9-0.02c0,0-3.87-4.2,3.22-7.36
		c0,0,3.31-1.17-0.19-3.14c0,0-12-4.8-2.06-10.4c0,0,7.71-3.91,12.59,4.46c0,0-0.82-5.8,5.23-7.31
		C477.11,647.62,483.2,645.56,481.35,655.92z"/>
	
		<ellipse transform="matrix(0.5693 -0.8221 0.8221 0.5693 -339.1635 672.0913)" class="st16" cx="471.89" cy="659.76" rx="1.26" ry="1.57"/>
	
		<ellipse transform="matrix(0.7203 -0.6936 0.6936 0.7203 -327.713 511.7651)" class="st16" cx="470.77" cy="662.27" rx="1.1" ry="1.31"/>
	
		<ellipse transform="matrix(0.9885 -0.1511 0.1511 0.9885 -94.6472 79.0731)" class="st16" cx="473.04" cy="662.39" rx="0.77" ry="1.01"/>
</g>
<g>
	<path class="st15" d="M549.99,722.44c0,0,10.91-11.17,17.24-7.05c0,0,6.89,8.02-0.83,19.43c0,0,9-5.74,17.12,0.23
		c0,0,7.06,6.75-3.78,12.21c0,0,18.09,11.36-7.67,12.59c0,0-8.57-0.88-6.42,4.69c0,0,3.2,6.56-4.29,10.65
		c0,0-10.37,3.98-10.99-11.12c0,0,0.27-6.82-5.82-1.92c0,0-17.31,18.25-20.28-3.75c0,0-1.51-16.75,17.12-19.55
		c0,0-11.08-2.7-9.45-14.71C531.94,724.14,532.59,711.64,549.99,722.44z"/>
	
		<ellipse transform="matrix(0.8329 -0.5535 0.5535 0.8329 -318.9 428.5284)" class="st16" cx="550.12" cy="742.31" rx="3.05" ry="2.44"/>
	
		<ellipse transform="matrix(0.9257 -0.3783 0.3783 0.9257 -241.0796 264.9452)" class="st16" cx="553.87" cy="746.14" rx="2.55" ry="2.15"/>
	
		<ellipse transform="matrix(0.225 -0.9744 0.9744 0.225 -292.4055 1116.6144)" class="st16" cx="555.72" cy="742.12" rx="1.5" ry="1.96"/>
</g>
<g>
	<path class="st0" d="M589.78,294.69c-29.3,0-58.61,0-87.91,0c-13.83,0-27.65,0-41.48,0c-25.99,0-51.98,0-77.97,0
		c-9.55,0-19.1,0.01-28.65,0.01c2.13,4.45,4.52,8.75,7.12,12.9c73.92,0,147.85,0.01,221.77-0.01
		C585.26,303.45,587.65,299.14,589.78,294.69z"/>
	<path class="st0" d="M602.59,238.19c0-72.25-58.57-130.81-130.81-130.81s-130.81,58.57-130.81,130.81c0,0.65,0.02,1.31,0.02,1.96
		c87.19,0,174.39,0,261.58,0C602.57,239.49,602.59,238.84,602.59,238.19z"/>
	<path class="st0" d="M600.93,258.98c-86.11,0-172.22,0-258.32,0c1.06,6.65,2.63,13.13,4.65,19.4c83.01,0,166.01,0,249.02,0
		C598.31,272.11,599.87,265.63,600.93,258.98z"/>
	<path class="st0" d="M573.59,320.31c-67.88-0.02-135.77-0.02-203.65-0.02c2.93,3.63,6.04,7.1,9.33,10.39c61.67,0,123.33,0,185,0
		C567.56,327.4,570.67,323.93,573.59,320.31z"/>
	<path class="st0" d="M471.77,369c14.3,0,28.06-2.3,40.94-6.54c-27.29,0-54.57,0-81.86,0C443.72,366.7,457.48,369,471.77,369z"/>
	<path class="st0" d="M392.82,342.49c4.01,3.04,8.21,5.86,12.57,8.43c14.67,0,29.35,0,44.02,0c29.58,0,59.17,0,88.75-0.01
		c4.35-2.57,8.55-5.38,12.56-8.42c-10.33,0-20.67,0-31,0C477.42,342.49,435.12,342.49,392.82,342.49z"/>
	<path class="st17" d="M382.42,294.69c25.99,0,51.98,0,77.97,0c13.83,0,27.65,0,41.48,0c-13.83,0-27.65,0-41.48,0
		C434.4,294.7,408.41,294.69,382.42,294.69z"/>
</g>
<g>
	<path class="st18" d="M717.64,774.31l-15.77-103.24c-2.15-8.6-11.47-7.89-11.47-7.89h-15.06h-35.49h-0.36h-35.49h-15.06
		c0,0-9.32-0.72-11.47,7.89l-15.77,103.24c0,0-4.3,18.64,8.6,20.79c0,0-16.49,58.79,5.74,67.39c0,0,10.75,4.3,55.2,4.3h7.53h1.79
		h7.53c44.45,0,55.2-4.3,55.2-4.3c22.22-8.6,5.74-67.39,5.74-67.39C721.95,792.95,717.64,774.31,717.64,774.31z"/>
	<path class="st19" d="M639.48,601.86c-24,0-43.46,22.89-43.46,51.13c0,13.45-0.65,31.78,6.57,40.91
		c7.79,9.85,24.07,10.22,36.55,10.23v0c0.12,0,0.23,0,0.35,0s0.23,0,0.35,0v0c12.48-0.01,28.76-0.38,36.55-10.23
		c7.22-9.13,6.57-27.45,6.57-40.91c0-28.24-19.46-51.13-43.46-51.13"/>
	<path class="st18" d="M676.28,617.85c-10.82-25.24-36.06-24.52-36.06-24.52h-0.72h-0.72c0,0-25.24-0.72-36.06,24.52
		c0,0-3.61,9.38-4.33,12.98h41.11h41.11C679.88,627.23,676.28,617.85,676.28,617.85z"/>
	<path class="st18" d="M683.97,617.95h-44.04h-0.07h-44.04c-3.47,0-6.29,3.4-6.29,7.6v10.59c0,4.2,2.82,7.6,6.29,7.6h44.04h0.07
		h44.04c3.47,0,6.29-3.4,6.29-7.6v-10.59C690.26,621.35,687.44,617.95,683.97,617.95z"/>
	<g>
		<g>
			<path class="st20" d="M622.49,684.73c5.3,4.54,12.21,7.07,19.21,6.71c6.85-0.36,13.4-3.36,18.19-8.25
				c1.35-1.38-0.77-3.5-2.12-2.12c-4.23,4.32-10.01,7.06-16.07,7.37c-6.19,0.32-12.39-1.8-17.09-5.83
				C623.15,681.36,621.02,683.47,622.49,684.73L622.49,684.73z"/>
		</g>
	</g>
	<ellipse class="st20" cx="619.21" cy="663.17" rx="2.81" ry="3.58"/>
	<ellipse class="st20" cx="660.1" cy="662.15" rx="2.81" ry="3.58"/>
</g>
<g>
	<g>
		<path class="st4" d="M1683.07,413.75c-5.02-3.02-7.31-13.23-3.57-36.31c0,0,17.3-58.43,45.92-75.22c0,0,15.61-13.99,50.93-8.61
			c0,0,3.16,0.24,4.43,2.76C1755.72,300.75,1688.82,321.09,1683.07,413.75z"/>
		<path class="st3" d="M1780.78,296.38c1.02,2.03,0.82,5.54-3.28,11.64c0,0-10.5,27.37-18.72,31.82c0,0-3.03,5.21-12.09-3.67
			c0,0-5.21-2.93-4.16,2.72c0,0,1.44,10.07,8.8,15.64c0,0,5.94,5.85-0.64,8.9c0,0-29.37,12.32-40.65,10.09c0,0-8.72,0.61,4.7,5.27
			c0,0,1.67,0.98,5.52,0.8c0,0,8.33-0.17,0.81,9.46c0,0-26.35,31.7-38,24.69C1688.82,321.09,1755.72,300.75,1780.78,296.38z"/>
	</g>
	<g>
		<path class="st3" d="M1494.85,284.22c-0.78,4.07,1.59,11.03,17.66,20.93c0,0,16.72,8.09,42.52,7.66c0,0,9,0.86,2.63,5.39
			l-4.31,3.43c0,0-6.86,2.51,10.3,13.29c0,0,17.5,8.8,29.13,7.4c0,0,3.74-0.62,4.93,0.75c0,0,2.59,1.7-3.4,3.2
			c0,0-9.77,4.62-2.11,7.77c0,0,16.13,8.03,27.48,8.23c0,0,28.69,3.17,50.36,32.15c0,0,7.56,8.41,11.16,6.1
			C1622.85,264.3,1517.38,279.27,1494.85,284.22z"/>
		<path class="st4" d="M1681.21,400.51c0.74-0.48,1.33-1.37,1.63-2.93c0,0,4.29-56.76-85.64-116.31c0,0-64.27-33.36-99.69-1.36
			c0,0-2.12,1.43-2.67,4.3C1517.38,279.27,1622.85,264.3,1681.21,400.51z"/>
	</g>
	<path class="st2" d="M1668.23,420.64h12.03c0,0-80.18,149.62-63.93,290.24c0,0,9.21,60.18,11.38,66.37c0,0,8.13,14.62-17.88,15.75
		c0,0-55.8,6.19-52.01-21.94C1557.82,771.06,1576.73,518.51,1668.23,420.64z"/>
	<g>
		<path class="st3" d="M1680.26,393.65c-1.05-0.97-2.26-1.86-3.79-2.61c0,0-60.14-14.41-106.46,6.71c0,0-15.44,5.1,0,18.18
			c0,0,4.88,11.1-6.91,6.75c0,0-7.72-4.22-24.79,8.02c0,0-54.04,29.95-33.73,37.12c0,0,3.25,3.8,4.47,8.02c0,0,2.58,5.48-14.35,2.11
			c0,0-10.43-2.95-13.08,5.7c0,0-40.02,82.25-20.72,96.9C1478.26,536.28,1540.73,406.38,1680.26,393.65z"/>
		<path class="st4" d="M1680.26,393.65c-139.53,12.73-202,142.63-219.34,186.88c3.59,2.72,9.22,3.11,17.54,0.2
			c0,0,40.77-18,62.3-47.11c0,0,3.05-6.33-0.81-13.29c0,0-3.45-14.34,5.08-6.54c0,0,6.91,8.02,18.49-0.42
			c0,0,45.31-27.21,47.13-34.8c0,0,0.2-8.44-0.61-12.23c0,0-1.22-10.34,7.52-5.91c0,0,17.68,12.23,22.35,5.91
			C1639.9,466.34,1699.89,411.81,1680.26,393.65z"/>
	</g>
	<g>
		<path class="st4" d="M1838.85,426.47c0,0,19.48,17.83,33.53,49.13c0.84-2.29,0.58-4.41,0.58-4.41
			c-0.81-56.11-62.17-87.32-62.17-87.32C1718.96,344,1682,397.75,1682,397.75c-0.17,0.3-0.27,0.57-0.39,0.86
			C1711.93,386.17,1779.79,368.63,1838.85,426.47z"/>
		<path class="st3" d="M1839.43,426.47c-59.06-57.84-126.92-40.3-157.24-27.86c-3.4,7.75,10.33,8.04,10.33,8.04
			c32.3-3.16,52.01,19.82,52.01,19.82c7.11,9.91,22.28,18,22.28,18c6.77,4.36,3.79-7.87,3.79-7.87c-2.71-6.47,0-5.48,0-5.48
			c1.63,0,3.52,3.8,3.52,3.8c6.23,11.39,22.75,20.11,22.75,20.11c17.61,6.89,15.03-1.12,15.03-1.12l-0.41-6.47
			c-0.95-9.14,5.15-1.83,5.15-1.83c15.58,23.2,31.15,31.78,31.15,31.78c18.17,7.32,23.58,2.49,25.15-1.78
			C1858.91,444.3,1839.43,426.47,1839.43,426.47z"/>
	</g>
	<g>
		<path class="st4" d="M1768.35,552.7c0,0-10.42-55.2-20.23-64.7c0,0,11.94,4.14,8.64-5.4c0,0-13.87-55.6-58.16-78.38
			c0,0-11.73-6.83-16.69-6.26c14.25,24.75,30.81,57.92,30.81,57.92c31.85,71.79,18.09,127.01,18.09,127.01
			c-7.42,18.17-14.34,31.34-20.42,40.92c3.81,1.11,11.71-2.46,27.6-17.77c0,0,16.83-16.42,22.17-30.38c0,0,2.02-2.68-4.09-5.18
			c0,0-7.84-3.11-1.15-5.27l10.14-3.55C1765.05,561.69,1769.62,560.92,1768.35,552.7z"/>
		<path class="st3" d="M1712.72,455.89c0,0-16.55-33.16-30.81-57.92c-0.99,0.11-1.73,0.49-2.03,1.31c0,0-32.02,82.89,0.44,74.25
			c0,0,9.74-2.23,10.57,0.54c0,0,2.43,2.54-12.46,7.28c0,0-8.82,1.53-3.26,13.31c0,0,9.5,26.09,8.79,43.26c0,0-1.49,11.19,8.05,9.09
			c0,0,12.3-4.86,13.33-2.33c0,0,2.86,2.51-11.13,8.09c0,0-3.52,1.01,0.46,8.22c0,0,17.27,33.85,13.3,49.91
			c0,0-3.04,11.34,2.44,12.94c6.08-9.58,13-22.76,20.42-40.92C1730.81,582.9,1744.57,527.69,1712.72,455.89z"/>
	</g>
	<g>
		<g>
			<path class="st21" d="M1588.72,671.72c8.73,6.15,18.8,11,29.46,12.49c2.32,0.32,4.95-0.56,5.54-3.14
				c0.48-2.12-0.65-5.19-3.14-5.54c-2.34-0.33-4.65-0.81-6.92-1.44c-1.14-0.32-2.28-0.68-3.4-1.07c-0.61-0.21-1.21-0.43-1.81-0.66
				c-0.27-0.1-0.54-0.21-0.8-0.32c-0.13-0.05-1.02-0.42-0.33-0.13c-4.96-2.1-9.64-4.86-14.04-7.96c-1.93-1.36-5.09-0.41-6.16,1.61
				C1585.89,667.87,1586.66,670.27,1588.72,671.72L1588.72,671.72z"/>
		</g>
	</g>
	<g>
		<g>
			<path class="st21" d="M1582.51,713.03c11.86,7.01,25.05,11.66,38.84,12.65c2.35,0.17,4.6-2.19,4.5-4.5
				c-0.12-2.58-1.98-4.32-4.5-4.5c-0.77-0.05-1.54-0.12-2.3-0.2c-0.35-0.04-0.7-0.07-1.05-0.12c-0.07-0.01-1.44-0.2-0.49-0.06
				c-1.41-0.21-2.82-0.44-4.22-0.72c-3.08-0.62-6.12-1.43-9.1-2.42c-1.49-0.49-2.97-1.03-4.44-1.6c-0.35-0.14-0.7-0.28-1.05-0.42
				c-0.2-0.08-0.96-0.4-0.4-0.16c-0.78-0.33-1.55-0.67-2.31-1.03c-3.06-1.41-6.04-2.99-8.94-4.7c-2.03-1.2-5.03-0.53-6.16,1.61
				C1579.75,709.03,1580.34,711.75,1582.51,713.03L1582.51,713.03z"/>
		</g>
	</g>
	<g>
		<g>
			<path class="st21" d="M1596.7,634.42c6.17,4.68,13.33,8.81,21.05,10.17c2.31,0.41,4.96-0.62,5.54-3.14
				c0.5-2.19-0.66-5.1-3.14-5.54c-1.58-0.28-3.13-0.68-4.65-1.18c-0.79-0.26-1.56-0.57-2.33-0.87c-0.58-0.22,0.76,0.34,0.19,0.08
				c-0.2-0.09-0.4-0.17-0.59-0.26c-0.45-0.2-0.9-0.42-1.35-0.63c-3.6-1.77-6.97-3.97-10.17-6.39c-0.87-0.66-2.47-0.73-3.47-0.45
				c-1.04,0.29-2.18,1.09-2.69,2.07C1593.83,630.64,1594.69,632.9,1596.7,634.42L1596.7,634.42z"/>
		</g>
	</g>
	<g>
		<g>
			<path class="st21" d="M1603.08,600.56c4.85,4.75,10.53,8.87,17.07,10.89c2.25,0.69,5.01-0.82,5.54-3.14
				c0.56-2.44-0.73-4.79-3.14-5.54c-0.86-0.26-1.7-0.57-2.52-0.92c0.36,0.15,0.72,0.3,1.07,0.45c-2.18-0.93-4.24-2.11-6.18-3.46
				c-0.5-0.35-0.98-0.79-1.5-1.09c1.14,0.67,0.12,0.08-0.16-0.14c-0.21-0.17-0.43-0.35-0.64-0.53c-1.1-0.92-2.15-1.89-3.18-2.89
				c-1.68-1.65-4.71-1.8-6.36,0C1601.45,595.98,1601.29,598.8,1603.08,600.56L1603.08,600.56z"/>
		</g>
	</g>
	<g>
		<g>
			<path class="st21" d="M1573.89,754.34c17.71,7.83,36.91,12.33,56.35,11.57c2.35-0.09,4.61-2,4.5-4.5c-0.11-2.36-1.98-4.6-4.5-4.5
				c-4.43,0.17-8.86,0.08-13.28-0.28c-1.04-0.09-2.09-0.19-3.13-0.3c-0.6-0.07-1.19-0.14-1.79-0.21c-0.55-0.07-0.6-0.08-0.15-0.02
				c-0.3-0.04-0.6-0.08-0.9-0.13c-2.18-0.32-4.35-0.7-6.52-1.13c-4.48-0.91-8.91-2.07-13.27-3.46c-4.39-1.4-9.1-3.2-12.77-4.82
				c-2.15-0.95-4.93-0.7-6.16,1.61C1571.25,750.13,1571.59,753.32,1573.89,754.34L1573.89,754.34z"/>
		</g>
	</g>
	
		<ellipse transform="matrix(0.9197 -0.3926 0.3926 0.9197 -30.8606 701.6509)" class="st22" cx="1699.8" cy="426.27" rx="25.19" ry="32.7"/>
	
		<ellipse transform="matrix(0.3136 -0.9496 0.9496 0.3136 742.1254 1863.9501)" class="st23" cx="1660.34" cy="418.66" rx="35.75" ry="30.8"/>
	<path class="st24" d="M1583.45,718.52"/>
</g>
</svg>
