<?xml version="1.0" encoding="utf-8"?>
<!-- Generator: Adobe Illustrator 24.0.1, SVG Export Plug-In . SVG Version: 6.00 Build 0)  -->
<svg version="1.1" id="Layer_1" xmlns="http://www.w3.org/2000/svg" xmlns:xlink="http://www.w3.org/1999/xlink" x="0px" y="0px"
	 viewBox="0 0 1766.35 498.65" style="enable-background:new 0 0 1766.35 498.65;" xml:space="preserve">
<style type="text/css">
	.st0{fill:#F8B694;}
	.st1{fill:#369643;}
	.st2{fill:#8BC278;}
	.st3{fill:#BF7B47;}
	.st4{fill:#D79970;}
	.st5{fill:#DBAB4A;}
	.st6{fill:#F6C24C;}
	.st7{fill:#EEDDCA;stroke:#4D3F3B;stroke-width:3;stroke-miterlimit:10;}
</style>
<rect y="363.39" class="st0" width="1494.44" height="127.32"/>
<path class="st1" d="M1586.82,139.62c-4.75-2.86-6.91-12.51-3.38-34.32c0,0,16.35-55.23,43.4-71.1c0,0,14.76-13.22,48.14-8.14
	c0,0,2.99,0.23,4.19,2.61C1655.49,32.81,1592.25,52.03,1586.82,139.62z"/>
<path class="st2" d="M1679.17,28.68c0.97,1.92,0.77,5.24-3.1,11c0,0-9.92,25.87-17.69,30.08c0,0-2.87,4.92-11.42-3.47
	c0,0-4.92-2.77-3.93,2.57c0,0,1.36,9.52,8.32,14.79c0,0,5.62,5.53-0.6,8.41c0,0-27.76,11.65-38.43,9.54c0,0-8.24,0.58,4.44,4.99
	c0,0,1.58,0.93,5.22,0.76c0,0,7.87-0.16,0.76,8.95c0,0-24.91,29.97-35.92,23.34C1592.25,52.03,1655.49,32.81,1679.17,28.68z"/>
<path class="st2" d="M1408.9,17.18c-0.74,3.84,1.5,10.42,16.69,19.78c0,0,15.81,7.65,40.19,7.24c0,0,8.51,0.81,2.49,5.09l-4.07,3.24
	c0,0-6.48,2.37,9.74,12.56c0,0,16.54,8.32,27.54,7c0,0,3.54-0.58,4.66,0.71c0,0,2.45,1.61-3.22,3.02c0,0-9.24,4.37-2,7.35
	c0,0,15.24,7.59,25.97,7.78c0,0,27.12,2.99,47.61,30.39c0,0,7.15,7.95,10.55,5.77C1529.89-1.64,1430.2,12.5,1408.9,17.18z"/>
<path class="st1" d="M1585.06,127.11c0.7-0.45,1.26-1.3,1.55-2.77c0,0,4.06-53.66-80.95-109.94c0,0-60.75-31.54-94.23-1.28
	c0,0-2,1.35-2.52,4.06C1430.2,12.5,1529.89-1.64,1585.06,127.11z"/>
<path class="st3" d="M1572.79,146.13h11.38c0,0-75.79,141.43-60.43,274.35c0,0,8.71,56.89,10.75,62.74c0,0,7.68,13.82-16.9,14.89
	c0,0-52.75,5.85-49.16-20.74C1468.43,477.37,1486.3,238.65,1572.79,146.13z"/>
<path class="st2" d="M1584.16,120.62c-0.99-0.92-2.14-1.76-3.58-2.47c0,0-56.84-13.62-100.63,6.35c0,0-14.59,4.82,0,17.18
	c0,0,4.61,10.49-6.53,6.38c0,0-7.3-3.99-23.43,7.58c0,0-51.08,28.31-31.88,35.09c0,0,3.07,3.59,4.22,7.58c0,0,2.44,5.18-13.57,1.99
	c0,0-9.86-2.79-12.36,5.38c0,0-37.83,77.75-19.59,91.59C1393.22,255.44,1452.27,132.65,1584.16,120.62z"/>
<path class="st1" d="M1584.16,120.62c-131.89,12.03-190.94,134.82-207.33,176.65c3.39,2.57,8.71,2.94,16.58,0.19
	c0,0,38.54-17.01,58.89-44.53c0,0,2.88-5.98-0.77-12.56c0,0-3.26-13.56,4.8-6.18c0,0,6.53,7.58,17.48-0.4
	c0,0,42.82-25.72,44.55-32.9c0,0,0.19-7.98-0.58-11.56c0,0-1.15-9.77,7.11-5.58c0,0,16.71,11.56,21.12,5.58
	C1546.01,189.33,1602.72,137.79,1584.16,120.62z"/>
<path class="st1" d="M1734.07,151.64c0,0,18.41,16.86,31.69,46.44c0.8-2.16,0.55-4.17,0.55-4.17
	c-0.77-53.03-58.76-82.54-58.76-82.54c-86.81-37.68-121.74,13.13-121.74,13.13c-0.16,0.29-0.25,0.54-0.37,0.81
	C1614.1,113.55,1678.25,96.97,1734.07,151.64z"/>
<path class="st2" d="M1734.62,151.64c-55.82-54.67-119.97-38.09-148.63-26.33c-3.21,7.33,9.77,7.6,9.77,7.6
	c30.53-2.99,49.16,18.74,49.16,18.74c6.72,9.37,21.06,17.02,21.06,17.02c6.4,4.12,3.58-7.44,3.58-7.44c-2.56-6.11,0-5.18,0-5.18
	c1.54,0,3.33,3.59,3.33,3.59c5.89,10.77,21.51,19.01,21.51,19.01c16.64,6.51,14.21-1.06,14.21-1.06l-0.38-6.11
	c-0.9-8.64,4.86-1.73,4.86-1.73c14.72,21.93,29.45,30.04,29.45,30.04c17.17,6.92,22.29,2.35,23.78-1.68
	C1753.03,168.5,1734.62,151.64,1734.62,151.64z"/>
<path class="st1" d="M1667.43,270.97c0,0-9.85-52.18-19.12-61.15c0,0,11.29,3.92,8.16-5.1c0,0-13.11-52.55-54.98-74.09
	c0,0-11.09-6.45-15.77-5.91c13.47,23.4,29.12,54.74,29.12,54.74c30.1,67.86,17.1,120.05,17.1,120.05
	c-7.01,17.17-13.55,29.62-19.3,38.68c3.6,1.05,11.07-2.33,26.09-16.8c0,0,15.91-15.52,20.95-28.71c0,0,1.91-2.54-3.87-4.89
	c0,0-7.41-2.94-1.09-4.98l9.58-3.35C1664.31,279.46,1668.62,278.73,1667.43,270.97z"/>
<path class="st2" d="M1614.84,179.45c0,0-15.65-31.35-29.12-54.74c-0.93,0.11-1.64,0.47-1.92,1.24c0,0-30.26,78.35,0.42,70.18
	c0,0,9.21-2.11,9.99,0.51c0,0,2.3,2.4-11.78,6.88c0,0-8.33,1.45-3.08,12.58c0,0,8.98,24.67,8.31,40.89c0,0-1.41,10.58,7.6,8.59
	c0,0,11.62-4.59,12.6-2.21c0,0,2.7,2.38-10.52,7.64c0,0-3.32,0.95,0.43,7.77c0,0,16.32,32,12.57,47.17c0,0-2.88,10.72,2.31,12.23
	c5.75-9.06,12.29-21.51,19.3-38.68C1631.94,299.5,1644.95,247.32,1614.84,179.45z"/>
<g>
	<g>
		<path class="st4" d="M1497.51,383.68c8.27,5.83,17.81,10.42,27.9,11.83c2.32,0.32,4.95-0.56,5.54-3.14
			c0.48-2.12-0.65-5.19-3.14-5.54c-2.21-0.31-4.39-0.76-6.54-1.36c-1.08-0.3-2.15-0.64-3.21-1.01c-0.54-0.19-1.08-0.38-1.61-0.59
			c-0.27-0.1-0.54-0.21-0.81-0.31c-0.13-0.05-1.02-0.42-0.34-0.13c-4.69-1.98-9.1-4.59-13.26-7.52c-1.93-1.36-5.09-0.41-6.16,1.61
			C1494.68,379.83,1495.45,382.22,1497.51,383.68L1497.51,383.68z"/>
	</g>
</g>
<g>
	<g>
		<path class="st4" d="M1491.64,422.72c11.26,6.65,23.76,11.05,36.84,11.99c2.35,0.17,4.6-2.19,4.5-4.5
			c-0.12-2.58-1.98-4.32-4.5-4.5c-0.7-0.05-1.4-0.11-2.1-0.18c-0.35-0.04-0.7-0.07-1.05-0.12c-0.33-0.04-0.94-0.12-0.28-0.03
			c-1.42-0.2-2.83-0.44-4.23-0.73c-2.87-0.58-5.71-1.34-8.49-2.26c-1.43-0.47-2.84-0.98-4.24-1.53c-0.28-0.11-0.56-0.22-0.85-0.34
			c0,0-1.29-0.54-0.61-0.25c-0.64-0.27-1.27-0.55-1.9-0.84c-2.93-1.34-5.78-2.85-8.55-4.49c-2.03-1.2-5.03-0.53-6.16,1.61
			C1488.88,418.73,1489.47,421.44,1491.64,422.72L1491.64,422.72z"/>
	</g>
</g>
<g>
	<g>
		<path class="st4" d="M1505.05,348.42c5.85,4.44,12.64,8.35,19.96,9.63c1.22,0.21,2.36,0.19,3.47-0.45
			c0.93-0.55,1.82-1.62,2.07-2.69c0.5-2.19-0.66-5.1-3.14-5.54c-1.49-0.26-2.96-0.64-4.4-1.12c-0.75-0.25-1.47-0.54-2.21-0.82
			c-0.57-0.22,0.8,0.35,0.24,0.1c-0.19-0.08-0.38-0.16-0.56-0.25c-0.43-0.19-0.85-0.39-1.27-0.6c-3.41-1.67-6.59-3.75-9.61-6.04
			c-0.87-0.66-2.47-0.73-3.47-0.45c-1.04,0.29-2.17,1.09-2.69,2.07c-0.55,1.04-0.83,2.31-0.45,3.47
			C1503.37,346.92,1504.06,347.67,1505.05,348.42L1505.05,348.42z"/>
	</g>
</g>
<g>
	<g>
		<path class="st4" d="M1511.04,316.38c4.61,4.52,10.02,8.44,16.25,10.36c2.25,0.69,5.01-0.82,5.54-3.14
			c0.56-2.44-0.73-4.79-3.14-5.54c-0.81-0.25-1.6-0.54-2.38-0.87c0.36,0.15,0.72,0.3,1.07,0.45c-2.68-1.14-5.15-2.69-7.46-4.46
			c0.3,0.23,0.61,0.47,0.91,0.7c-1.55-1.2-3.01-2.5-4.42-3.87c-1.68-1.65-4.71-1.8-6.36,0
			C1509.4,311.79,1509.24,314.62,1511.04,316.38L1511.04,316.38z"/>
	</g>
</g>
<g>
	<g>
		<path class="st4" d="M1483.49,461.77c16.79,7.41,34.96,11.69,53.39,10.97c2.35-0.09,4.61-2,4.5-4.5c-0.11-2.36-1.98-4.6-4.5-4.5
			c-4.11,0.16-8.23,0.08-12.33-0.24c-1.04-0.08-2.08-0.18-3.11-0.29c-0.59-0.06-1.19-0.14-1.78-0.21c-1.06-0.13,0.38,0.06-0.59-0.08
			c-2.17-0.32-4.33-0.68-6.48-1.12c-4.23-0.86-8.41-1.95-12.52-3.26c-4.14-1.32-8.61-3.02-12.03-4.53c-2.15-0.95-4.93-0.7-6.16,1.61
			C1480.85,457.57,1481.19,460.75,1483.49,461.77L1483.49,461.77z"/>
	</g>
</g>
<ellipse transform="matrix(0.9197 -0.3926 0.3926 0.9197 69.2406 641.4276)" class="st5" cx="1602.63" cy="151.45" rx="23.82" ry="30.91"/>
<ellipse transform="matrix(0.3136 -0.9496 0.9496 0.3136 937.4682 1585.3861)" class="st6" cx="1565.33" cy="144.26" rx="33.79" ry="29.11"/>
<path class="st7" d="M1492.65,427.7"/>
</svg>
