<?xml version="1.0" encoding="utf-8"?>
<!-- Generator: Adobe Illustrator 24.0.1, SVG Export Plug-In . SVG Version: 6.00 Build 0)  -->
<svg version="1.1" id="Layer_1" xmlns="http://www.w3.org/2000/svg" xmlns:xlink="http://www.w3.org/1999/xlink" x="0px" y="0px"
	 viewBox="0 0 223.22 223.22" style="enable-background:new 0 0 223.22 223.22;" xml:space="preserve">
<style type="text/css">
	.st0{fill:#F8B694;}
	.st1{fill:#FFFFFF;}
</style>
<g>
	<path class="st0" d="M212.29,159.82c-25,0-50,0-75.01,0c-11.8,0-23.59,0-35.39,0c-22.17,0-44.35,0-66.52,0
		c-8.15,0-16.3,0.01-24.45,0.01c1.82,3.8,3.85,7.47,6.08,11.01c63.07,0,126.14,0.01,189.21-0.01
		C208.44,167.29,210.47,163.62,212.29,159.82z"/>
	<path class="st0" d="M223.22,111.61C223.22,49.97,173.25,0,111.61,0S0,49.97,0,111.61c0,0.56,0.01,1.11,0.02,1.67
		c74.39,0,148.78,0,223.18,0C223.2,112.72,223.22,112.17,223.22,111.61z"/>
	<path class="st0" d="M221.81,129.35c-73.47,0-146.93,0-220.4,0c0.91,5.67,2.24,11.2,3.97,16.55c70.82,0,141.64,0,212.46,0
		C219.57,140.55,220.9,135.02,221.81,129.35z"/>
	<path class="st0" d="M198.48,181.67c-57.92-0.01-115.84-0.01-173.75-0.01c2.5,3.09,5.15,6.06,7.96,8.87c52.61,0,105.23,0,157.84,0
		C193.33,187.72,195.98,184.76,198.48,181.67z"/>
	<path class="st0" d="M111.61,223.22c12.2,0,23.94-1.96,34.93-5.58c-23.28,0-46.56,0-69.84,0
		C87.68,221.26,99.41,223.22,111.61,223.22z"/>
	<path class="st0" d="M44.25,200.6c3.43,2.6,7,5,10.72,7.19c12.52,0,25.04,0,37.56,0c25.24,0,50.48,0,75.72,0
		c3.71-2.19,7.29-4.59,10.71-7.19c-8.82,0-17.63,0-26.45,0C116.43,200.6,80.34,200.6,44.25,200.6z"/>
	<path class="st1" d="M35.37,159.82c22.17,0,44.35,0,66.52,0c11.8,0,23.59,0,35.39,0c-11.8,0-23.59,0-35.39,0
		C79.72,159.82,57.55,159.82,35.37,159.82z"/>
</g>
</svg>
