<?xml version="1.0" encoding="utf-8"?>
<!-- Generator: Adobe Illustrator 24.0.1, SVG Export Plug-In . SVG Version: 6.00 Build 0)  -->
<svg version="1.1" id="Layer_1" xmlns="http://www.w3.org/2000/svg" xmlns:xlink="http://www.w3.org/1999/xlink" x="0px" y="0px"
	 viewBox="0 0 396 108" style="enable-background:new 0 0 396 108;" xml:space="preserve">
<g>
	<g>
		<path d="M392.42,79.12c0,6.54-2.34,12.12-7.02,16.75c-4.68,4.63-10.33,6.95-16.93,6.95c-6.67,0-12.34-2.32-17.01-6.97
			c-4.67-4.65-7-10.22-7-16.73c0-6.54,2.33-12.13,7-16.78c4.66-4.65,10.33-6.97,17.01-6.97c6.61,0,12.25,2.32,16.93,6.95
			C390.08,66.95,392.42,72.55,392.42,79.12z M388.08,79.12c0-5.38-1.92-9.96-5.75-13.74c-3.83-3.78-8.47-5.67-13.92-5.67
			c-5.45,0-10.09,1.9-13.92,5.69c-3.83,3.8-5.75,8.37-5.75,13.71c0,5.31,1.92,9.87,5.75,13.69c3.83,3.81,8.47,5.72,13.92,5.72
			c5.45,0,10.09-1.9,13.92-5.69C386.17,89.04,388.08,84.47,388.08,79.12z"/>
		<g>
			<path d="M386.91,60.8c-1.92-1.9-4.01-3.45-6.24-4.63l3.7-0.02l-0.38-48.35h-8.92l0.15,19.43l-18.99,0.1l-0.01-1.55
				c-0.02-2.94-0.42-5.88-1.33-8.68c-0.79-2.94-2.09-5.33-4.16-7.46c-1.95-2.26-4.53-3.98-7.76-5.3c-3.1-1.32-7.1-1.96-11.87-1.94
				l-24.83,17.63l0.12,39.83l44.9-0.25c-0.45,0.39-0.89,0.8-1.32,1.22c-5.06,5.04-7.63,11.2-7.63,18.29c0,7.06,2.57,13.2,7.63,18.24
				c5.06,5.04,11.29,7.6,18.52,7.6c7.16,0,13.36-2.55,18.44-7.56c5.08-5.03,7.66-11.17,7.66-18.27
				C394.56,71.99,391.99,65.83,386.91,60.8z M315.61,52.33l-0.08-29.22l18.2-12.57c3.54,0.32,6.44,1.36,8.75,3.29
				c2.98,2.25,4.42,6.12,4.44,11.6l0.14,26.72L315.61,52.33z M356.27,35.76l19-0.1l0.16,18.46c-2.2-0.58-4.52-0.89-6.95-0.89
				c-4.42,0-8.47,0.96-12.1,2.86L356.27,35.76z M383.9,94.35c-4.3,4.26-9.35,6.33-15.43,6.33c-6.14,0-11.21-2.08-15.5-6.35
				c-4.28-4.27-6.37-9.24-6.37-15.21c0-6,2.08-10.99,6.37-15.26c4.29-4.27,9.35-6.35,15.5-6.35c6.07,0,11.12,2.07,15.43,6.33
				c4.3,4.25,6.39,9.25,6.39,15.28C390.28,85.12,388.19,90.1,383.9,94.35z"/>
			<path d="M383.84,63.86c-4.23-4.17-9.42-6.29-15.42-6.29c-6.01,0-11.2,2.12-15.42,6.32c-4.23,4.2-6.38,9.32-6.38,15.23
				c0,5.88,2.15,10.99,6.38,15.2c4.23,4.21,9.42,6.34,15.43,6.34c6.01,0,11.2-2.12,15.42-6.31c4.23-4.2,6.38-9.32,6.38-15.23
				C390.22,73.18,388.08,68.04,383.84,63.86z M380.83,91.32c-3.44,3.41-7.5,5.07-12.41,5.07c-4.9,0-8.96-1.67-12.41-5.1
				c-3.44-3.43-5.12-7.41-5.12-12.17c0-4.79,1.67-8.78,5.11-12.19c3.45-3.41,7.51-5.07,12.41-5.07c4.91,0,8.97,1.65,12.41,5.05
				c3.44,3.39,5.11,7.39,5.11,12.22C385.94,83.92,384.27,87.91,380.83,91.32z"/>
		</g>
	</g>
	<g>
		<path d="M194,79.12c0,6.54-2.34,12.12-7.02,16.75c-4.68,4.63-10.33,6.95-16.93,6.95c-6.67,0-12.34-2.32-17.01-6.97
			c-4.67-4.65-7-10.22-7-16.73c0-6.54,2.33-12.13,7-16.78c4.66-4.65,10.33-6.97,17.01-6.97c6.61,0,12.25,2.32,16.93,6.95
			C191.65,66.95,194,72.55,194,79.12z M189.65,79.12c0-5.38-1.92-9.96-5.75-13.74c-3.83-3.78-8.47-5.67-13.92-5.67
			c-5.45,0-10.09,1.9-13.92,5.69c-3.83,3.8-5.75,8.37-5.75,13.71c0,5.31,1.92,9.87,5.75,13.69c3.83,3.81,8.47,5.72,13.92,5.72
			c5.45,0,10.09-1.9,13.92-5.69C187.74,89.04,189.65,84.47,189.65,79.12z"/>
		<g>
			<path d="M188.48,60.8c-1.92-1.9-4.01-3.45-6.24-4.63l3.7-0.02l-0.38-48.56h-8.92l0.15,19.64l-18.26,0.1l0-0.68
				c-0.02-2.83-0.42-5.66-1.33-8.36c-0.79-2.83-2.09-5.13-4.16-7.18c-1.94-2.18-4.52-3.84-7.75-5.1c-3.09-1.27-7.09-1.89-11.85-1.87
				c-5.02,0.03-9.13,0.69-12.47,2.26c-3.21,1.3-5.77,3.12-7.56,5.44c-1.79,2.2-3.06,4.65-3.82,7.35c-0.63,2.58-1,5.15-0.99,7.59
				l0.01,2.57l0.04,7.33l0.12,22.77l44.51-0.24c-0.6,0.51-1.19,1.04-1.77,1.61c-5.06,5.04-7.63,11.2-7.63,18.29
				c0,7.06,2.57,13.2,7.63,18.24c5.06,5.04,11.29,7.6,18.52,7.6c7.16,0,13.36-2.55,18.44-7.56c5.08-5.03,7.66-11.17,7.66-18.27
				C196.14,71.99,193.56,65.83,188.48,60.8z M118.01,52.2l-0.14-25.73c-0.03-5.4,1.37-9.27,4.18-11.34
				c2.82-2.2,6.67-3.25,11.43-3.28c4.76-0.03,8.5,0.98,11.34,3.28c2.97,2.17,4.41,5.89,4.43,11.17l0.14,25.73L118.01,52.2z
				 M158.57,35.76l18.26-0.1L177,54.12c-2.2-0.58-4.52-0.89-6.95-0.89c-4.12,0-7.92,0.83-11.36,2.48L158.57,35.76z M185.47,94.35
				c-4.31,4.26-9.35,6.33-15.43,6.33c-6.14,0-11.21-2.08-15.5-6.35c-4.28-4.27-6.37-9.24-6.37-15.21c0-6,2.08-10.99,6.37-15.26
				c4.29-4.27,9.35-6.35,15.5-6.35c6.07,0,11.12,2.07,15.43,6.33c4.3,4.25,6.39,9.25,6.39,15.28
				C191.86,85.12,189.77,90.1,185.47,94.35z"/>
			<path d="M185.41,63.86c-4.23-4.17-9.42-6.29-15.42-6.29c-6.01,0-11.2,2.12-15.42,6.31c-4.23,4.2-6.38,9.32-6.38,15.23
				c0,5.88,2.15,10.99,6.38,15.2c4.23,4.21,9.42,6.34,15.43,6.34c6.01,0,11.2-2.12,15.42-6.31c4.23-4.19,6.38-9.32,6.38-15.23
				C191.79,73.18,189.65,68.04,185.41,63.86z M182.4,91.32c-3.44,3.41-7.5,5.07-12.41,5.07c-4.9,0-8.96-1.67-12.41-5.1
				c-3.44-3.43-5.12-7.41-5.12-12.17c0-4.79,1.67-8.78,5.11-12.19c3.45-3.41,7.51-5.07,12.41-5.07c4.91,0,8.97,1.65,12.41,5.05
				c3.44,3.39,5.11,7.39,5.11,12.22C187.51,83.92,185.84,87.91,182.4,91.32z"/>
		</g>
	</g>
	<g>
		<g>
			<path d="M248.82,7.79l0.01,1.16c-0.12,5.06-0.83,10.13-2.29,15.2l-1.46,3.77c3.11,0.42,6.23,1.27,9.35,2.41
				c3.56,1.43,6.69,3.15,9.51,5.45c2.68,2.3,5.07,5.03,6.86,7.92c1.65,3.17,2.55,6.5,2.57,9.97l0.02,2.89l-9.48,0.05l-0.01-1.59
				c-0.16-2.46-0.92-4.77-2.11-7.08c-1.35-2.16-3.14-4.18-5.22-5.9c-2.23-1.72-4.76-3.01-7.43-4.16c-2.67-1-5.49-1.56-8.16-1.84
				c-0.59,0.87-1.18,1.6-1.62,2.32c-3.24,4.36-7.51,8.14-12.53,11.21c-5.32,3.21-11.53,5.12-18.93,6.03l-0.05-8.97
				c5.33-0.9,9.91-2.66,13.75-5.14c3.69-2.33,6.79-5.1,9.14-8.58c2.35-3.34,3.96-7.11,5.12-11.31c1.01-4.06,1.58-8.26,1.71-12.74
				l-0.01-1.01L248.82,7.79z"/>
		</g>
		<polygon points="283.88,105.5 294.54,105.44 294.03,7.79 283.37,7.85 283.68,67.15 207.84,67.52 207.89,75.52 239.32,75.36 
			239.46,105.5 250.12,105.44 249.98,75.3 283.72,75.15 		"/>
	</g>
	<g>
		<g>
			<path d="M83.78,90.66c-6.8,2.41-13.45,4.22-19.81,5.14c-6.51,0.92-12.14,1.1-17.17,0.68c-5.04-0.42-8.89-1.43-11.86-3.19
				c-3.12-1.76-4.61-4.12-4.63-7.08l-0.01-2.37l49.16-0.27l-0.15-8.03l0,0.06l-0.05-1.67c-0.03-5.92-2.42-10.35-7.33-13.43
				c-4.75-2.94-10.69-4.98-17.5-5.83c-6.82-0.85-13.92-0.66-21.32,0.41c-7.25,1.22-13.46,3.03-18.63,5.58l0.04,8.14
				c6.8-2.41,13.45-4.22,19.81-5.14c6.51-0.92,12.14-1.1,17.17-0.68s8.89,1.43,11.86,3.19c3.12,1.76,4.61,4.12,4.63,7.08L68,75.61
				l-49,0l0.05,9.92c0.03,5.92,2.42,10.35,7.33,13.43c4.75,2.94,10.69,4.98,17.5,5.83c6.82,0.85,13.92,0.66,21.32-0.41
				c7.25-1.22,13.46-3.03,18.63-5.58L83.78,90.66z"/>
		</g>
		<path d="M96.85,39.56l-42.49,0.23L54.3,29.05c2.18-0.16,4.39-0.39,6.62-0.72c7.25-1.22,13.46-3.03,18.63-5.58l-0.04-8.14
			c-6.8,2.41-13.45,4.22-19.81,5.14c-6.51,0.92-12.14,1.1-17.17,0.68c-5.04-0.42-8.89-1.43-11.86-3.19
			c-3.12-1.76-4.61-4.12-4.63-7.08l-0.01-2.37l-11.3,0.02l0.05,1.67c0.03,5.92,2.42,10.35,7.33,13.43
			c4.75,2.94,10.69,4.98,17.5,5.83c1.33,0.17,2.68,0.28,4.04,0.37l0.06,10.74L1.65,40.08l0.04,8.29l95.2-0.52L96.85,39.56z"/>
	</g>
</g>
</svg>
